v -0.028328 0.356466 0.248934
v 0.000000 0.189507 0.418053
v 0.028328 0.356466 0.248934
v 0.000000 0.556754 0.547860
v -0.028328 0.360876 -0.253960
v 0.000000 0.186422 -0.379861
v 0.028328 0.360876 -0.253960
v -0.000000 0.552908 -0.543574
v -0.028328 0.747332 -0.001100
v 0.000000 0.675853 -0.001100
v 0.028328 0.747332 -0.001100
v 0.000000 0.818812 -0.001100
v -0.028328 0.650507 -0.283023
v 0.000000 0.602266 -0.234041
v 0.028328 0.650507 -0.283023
v -0.000000 0.709670 -0.252975
v 0.000000 0.602387 0.266862
v 0.028328 0.642628 0.321723
v 0.000000 0.708940 0.284319
v -0.028328 0.642628 0.321723
v 0.000000 0.362496 0.159883
v 0.028328 0.402738 0.214744
v 0.000000 0.442979 0.269604
v -0.028328 0.402738 0.214744
v -0.028328 0.381650 -0.220160
v -0.000000 0.348420 -0.159863
v 0.028328 0.396661 -0.208845
v -0.000000 0.444902 -0.257827
vn -0.843906 -0.445688 -0.298637
vn 0.923176 -0.228425 -0.309141
vn 0.931006 0.337854 -0.138143
vn -0.923176 0.228425 0.309142
vn 0.000000 0.711637 0.702547
vn 0.000000 0.585205 -0.810885
vn -0.906323 -0.402958 0.127295
vn 0.922301 -0.365516 0.125535
vn 0.918030 0.363823 -0.157651
vn -0.852476 0.494420 -0.169806
vn -0.863751 0.141343 0.483691
vn 0.763447 0.181158 0.619944
vn -0.714856 0.012814 -0.699154
vn -0.618152 -0.178966 -0.765415
vn -0.883085 -0.452514 -0.124064
vn 0.923088 -0.365828 -0.118652
vn 0.920444 0.364780 0.140422
vn -0.876342 0.458192 0.148610
vn -0.765615 0.262006 -0.587526
vn 0.765615 0.262006 -0.587526
vn -0.822785 -0.031398 0.567485
vn -0.765615 -0.262006 0.587526
vn -0.918550 -0.318316 0.234395
vn 0.923571 -0.300399 0.238278
vn 0.938838 0.322116 0.121753
vn -0.933277 0.305982 -0.188066
vn -0.923176 -0.228425 -0.309141
vn 0.843906 -0.445688 -0.298637
vn 0.923176 0.228425 0.309140
vn -0.931006 0.337853 -0.138143
vn 0.000000 -0.830760 0.556631
vn 0.000000 -0.833434 -0.552619
vn -0.922301 -0.365516 0.125535
vn 0.906323 -0.402958 0.127295
vn 0.852475 0.494420 -0.169806
vn -0.918030 0.363823 -0.157651
vn -0.791709 0.139087 0.594854
vn 0.763446 -0.181158 -0.619945
vn 0.714856 0.012814 -0.699154
vn -0.923088 -0.365828 -0.118652
vn 0.883085 -0.452514 -0.124064
vn 0.876342 0.458193 0.148610
vn -0.920444 0.364780 0.140422
vn -0.765615 0.262006 -0.587525
vn 0.765615 -0.262006 0.587525
vn 0.822785 -0.031398 0.567485
vn -0.903959 -0.364307 0.223915
vn 0.918550 -0.318315 0.234395
vn 0.923571 0.300398 -0.238280
vn -0.938838 0.322116 0.121753
f 2//1 1//1 21//1
f 21//2 22//2 3//2
f 23//3 4//3 3//3
f 24//4 1//4 23//4
f 1//5 2//5 3//5
f 7//6 6//6 5//6
f 13//7 14//7 10//7
f 15//8 11//8 10//8
f 16//9 12//9 11//9
f 16//10 13//10 9//10
f 25//11 26//11 14//11
f 27//12 15//12 14//12
f 28//13 16//13 15//13
f 28//14 25//14 13//14
f 10//15 17//15 20//15
f 10//16 11//16 18//16
f 11//17 12//17 19//17
f 9//18 20//18 19//18
f 17//19 21//19 24//19
f 17//20 18//20 22//20
f 18//21 19//21 23//21
f 20//22 24//22 23//22
f 5//23 6//23 26//23
f 7//24 27//24 26//24
f 7//25 8//25 28//25
f 5//26 25//26 28//26
f 21//27 1//27 24//27
f 2//28 21//28 3//28
f 22//29 23//29 3//29
f 23//30 1//30 4//30
f 4//31 1//31 3//31
f 8//32 7//32 5//32
f 9//33 13//33 10//33
f 14//34 15//34 10//34
f 15//35 16//35 11//35
f 12//36 16//36 9//36
f 13//37 25//37 14//37
f 26//12 27//12 14//12
f 27//38 28//38 15//38
f 16//39 28//39 13//39
f 9//40 10//40 20//40
f 17//41 10//41 18//41
f 18//42 11//42 19//42
f 12//43 9//43 19//43
f 20//44 17//44 24//44
f 21//20 17//20 22//20
f 22//45 18//45 23//45
f 19//46 20//46 23//46
f 25//47 5//47 26//47
f 6//48 7//48 26//48
f 27//49 7//49 28//49
f 8//50 5//50 28//50
c 0.510357 0.201255 -0.089737