v -0.158663 0.781336 0.131027
v -0.082554 0.676977 -0.125653
v 0.154077 0.721513 -0.125653
v 0.048022 0.657808 0.131027
v -0.035135 0.988021 0.131027
v -0.127090 0.913608 -0.125653
v 0.109541 0.958144 -0.125653
v 0.171550 0.864493 0.131027
v 0.050383 0.947010 -0.125653
v 0.094919 0.710379 -0.125653
v 0.119879 0.895375 0.131027
v -0.003649 0.688690 0.131027
v -0.001028 0.692321 -0.125653
v 0.036074 0.945462 0.131027
v -0.045564 0.928952 -0.125653
v -0.087454 0.738777 0.131027
v -0.061695 0.943581 0.131027
v -0.117514 0.862730 -0.125653
v 0.119117 0.907266 -0.125653
v 0.144990 0.820053 0.131027
v 0.045629 0.866406 -0.091027
v 0.072315 0.838685 0.109434
v -0.011490 0.888772 0.109434
v -0.050318 0.848348 -0.091027
v -0.100353 0.771547 -0.125653
v 0.136278 0.816083 -0.125653
v 0.097390 0.740410 0.131027
v 0.062791 0.775223 -0.091027
v 0.024714 0.759042 0.109434
v -0.059090 0.809129 0.109434
v -0.033157 0.757165 -0.091027
v -0.109295 0.863938 0.131027
v -0.075461 0.964659 0.055701
v -0.132710 0.730796 0.058736
v 0.152277 0.908250 -0.002011
v 0.095028 0.674387 0.001024
v 0.038093 0.688489 0.015452
v 0.095343 0.922352 0.012417
v 0.003001 0.945225 0.035818
v -0.054248 0.711361 0.038853
v -0.087770 0.914376 0.056354
v 0.139968 0.857967 -0.001358
v -0.109831 0.824259 0.057523
v 0.117908 0.767850 -0.000189
v -0.113752 0.930127 -0.093561
v 0.137459 0.706383 -0.075680
v 0.126019 0.893670 -0.078206
v 0.131635 0.801733 -0.076966
v -0.099179 0.691542 -0.090342
v 0.122886 0.944968 -0.078899
v 0.078300 0.702673 -0.079346
v 0.063726 0.941258 -0.082564
v -0.032224 0.935240 -0.088509
v -0.017650 0.696655 -0.085291
v -0.110619 0.878829 -0.092869
v -0.105003 0.786893 -0.091629
vn -0.981500 -0.184700 -0.050800
vn -0.391300 -0.073600 -0.917300
vn 0.858100 -0.512800 0.026900
vn 0.000000 0.000000 1.000000
vn 0.184100 -0.978100 -0.096700
vn -0.184000 0.977900 -0.099500
vn -0.082300 0.437400 -0.895500
vn -0.181600 0.354700 0.917200
vn 0.182000 -0.966900 0.178800
vn -0.175700 0.933300 0.313100
vn 0.142000 0.237700 0.960900
vn -0.181800 0.965700 0.185200
vn 0.466900 0.585300 -0.662900
vn 0.165900 -0.881600 0.441800
vn -0.877700 -0.165200 0.449800
vn 0.823700 -0.492300 -0.281300
vn 0.249100 -0.148900 0.957000
vn 0.074800 -0.397300 -0.914600
vn -0.145400 -0.243300 0.959000
vn -0.941900 -0.177300 0.285200
vn 0.844900 -0.505000 -0.176700
vn 0.000000 0.000000 -1.000000
vn -0.246800 0.147500 0.957800
vn 0.471200 0.088700 -0.877600
vn -0.964700 0.234600 -0.119600
vn 0.969200 -0.236400 0.069000
vn -0.261500 -0.960700 -0.092800
vn 0.220700 0.972100 -0.079100
vn -0.181800 -0.958500 0.219600
vn 0.293700 0.919900 0.260000
vn 0.275100 0.948200 0.158800
vn -0.064300 -0.828600 0.556200
vn -0.886600 0.222300 0.405700
vn 0.871900 -0.219100 -0.437900
vn -0.942800 0.233900 0.237700
vn 0.932500 -0.231900 -0.277000
vn -0.998000 -0.061200 -0.017000
vn 0.069500 -0.990500 -0.118700
vn -0.058600 0.996300 -0.063400
vn 0.053800 -0.989600 0.133100
vn -0.083800 0.886400 0.455300
vn -0.074600 0.973000 0.218500
vn 0.044100 -0.963600 0.263600
vn -0.964000 -0.055400 0.260100
vn -0.984700 -0.057900 0.164600
vn 0.991700 0.062100 0.112900
vn 0.964100 0.055400 -0.259600
vn 0.990100 0.058800 -0.127200
vn -0.912500 -0.061200 -0.404400
vn 0.925600 -0.222600 0.306300
vn 0.467600 0.081600 0.880100
vn 0.076700 -0.961100 -0.265500
vn -0.028300 0.893500 -0.448200
vn 0.070600 -0.987800 -0.139100
vn -0.071300 0.985500 0.153700
vn -0.052700 0.987500 -0.148200
vn 0.054100 -0.990200 0.128600
vn -0.971100 -0.056200 0.231800
vn 0.965700 -0.237800 -0.104700
vn -0.992300 -0.062100 -0.107600
vn 0.966600 -0.235300 0.101900
vn -0.714200 0.426800 -0.554800
vn 0.862800 0.059500 0.502100
vn -0.492100 -0.823300 -0.282900
vn 0.451200 0.755000 -0.475700
vn -0.504600 -0.844200 -0.180800
vn 0.511000 0.855000 0.088800
vn 0.504900 0.844700 -0.177500
vn -0.511800 -0.856300 0.070300
vn -0.854200 0.510500 0.098600
vn 0.986700 0.058200 -0.152000
vn -0.828600 0.495200 -0.261300
vn 0.977300 0.062400 0.202300
vn -0.936100 0.225600 -0.270000
vn -0.326500 -0.794500 -0.512000
vn 0.168600 0.949900 -0.263000
vn -0.294100 -0.919100 -0.262300
vn 0.263700 0.959100 0.103100
vn 0.205600 0.969100 -0.136100
vn -0.228700 -0.972300 0.047700
vn -0.967000 0.237900 0.091400
vn -0.967600 0.235700 -0.090400
vn 0.917800 0.172700 0.357500
vn 0.978800 0.184200 -0.089600
vn 0.972100 0.183000 0.146600
f 56//1 25//1 2//1
f 28//2 26//2 3//2
f 44//3 27//3 4//3
f 32//4 1//4 16//4
f 51//5 10//5 3//5
f 53//6 15//6 6//6
f 31//7 28//7 10//7
f 27//8 29//8 12//8
f 54//9 13//9 10//9
f 50//10 7//10 9//10
f 30//11 16//11 12//11
f 52//12 9//12 15//12
f 25//13 31//13 13//13
f 49//14 2//14 13//14
f 45//15 6//15 18//15
f 7//2 19//2 21//2
f 35//16 8//16 20//16
f 5//17 17//17 23//17
f 9//18 21//18 24//18
f 8//19 11//19 22//19
f 11//19 14//19 23//19
f 6//18 15//18 24//18
f 55//20 18//20 25//20
f 19//2 26//2 28//2
f 42//21 20//21 27//21
f 17//17 32//17 30//17
f 24//22 21//22 28//22
f 20//23 22//23 29//23
f 23//4 30//4 29//4
f 18//24 24//24 31//24
f 32//25 43//25 34//25
f 48//26 44//26 36//26
f 12//27 37//27 36//27
f 14//28 39//28 33//28
f 16//29 40//29 37//29
f 8//30 35//30 38//30
f 11//31 38//31 39//31
f 1//32 34//32 40//32
f 5//33 33//33 41//33
f 50//34 35//34 42//34
f 17//35 41//35 43//35
f 47//36 42//36 44//36
f 43//37 56//37 49//37
f 37//38 51//38 46//38
f 39//39 53//39 45//39
f 40//40 54//40 51//40
f 35//41 50//41 52//41
f 38//42 52//42 53//42
f 34//43 49//43 54//43
f 33//44 45//44 55//44
f 41//45 55//45 56//45
f 26//46 48//46 46//46
f 7//47 50//47 47//47
f 19//48 47//48 48//48
f 49//49 56//49 2//49
f 10//7 28//7 3//7
f 36//50 44//50 4//50
f 30//51 32//51 16//51
f 46//52 51//52 3//52
f 45//53 53//53 6//53
f 13//7 31//7 10//7
f 4//4 27//4 12//4
f 51//54 54//54 10//54
f 52//55 50//55 9//55
f 29//11 30//11 12//11
f 53//56 52//56 15//56
f 2//22 25//22 13//22
f 54//57 49//57 13//57
f 55//58 45//58 18//58
f 9//18 7//18 21//18
f 42//59 35//59 20//59
f 14//19 5//19 23//19
f 15//18 9//18 24//18
f 20//23 8//23 22//23
f 22//19 11//19 23//19
f 18//24 6//24 24//24
f 56//60 55//60 25//60
f 21//2 19//2 28//2
f 44//61 42//61 27//61
f 23//17 17//17 30//17
f 31//22 24//22 28//22
f 27//23 20//23 29//23
f 22//4 23//4 29//4
f 25//24 18//24 31//24
f 1//62 32//62 34//62
f 46//63 48//63 36//63
f 4//64 12//64 36//64
f 5//65 14//65 33//65
f 12//66 16//66 37//66
f 11//67 8//67 38//67
f 14//68 11//68 39//68
f 16//69 1//69 40//69
f 17//70 5//70 41//70
f 47//71 50//71 42//71
f 32//72 17//72 43//72
f 48//73 47//73 44//73
f 34//74 43//74 49//74
f 36//75 37//75 46//75
f 33//76 39//76 45//76
f 37//77 40//77 51//77
f 38//78 35//78 52//78
f 39//79 38//79 53//79
f 40//80 34//80 54//80
f 41//81 33//81 55//81
f 43//82 41//82 56//82
f 3//83 26//83 46//83
f 19//84 7//84 47//84
f 26//85 19//85 48//85
v -0.007890 -0.019067 -0.266682
v 0.045271 0.229135 -0.261446
v 0.096389 -0.019067 -0.245939
v 0.143500 0.229135 -0.220758
v 0.184793 -0.019067 -0.186870
v 0.218681 0.229135 -0.145577
v 0.243862 -0.019067 -0.098466
v 0.259369 0.229135 -0.047348
v 0.264605 -0.019067 0.005813
v 0.259369 0.229135 0.058974
v 0.243862 -0.019067 0.110092
v 0.218681 0.229135 0.157203
v 0.184793 -0.019067 0.198496
v 0.143500 0.229135 0.232384
v 0.096389 -0.019067 0.257566
v 0.045271 0.229135 0.273072
v -0.007890 -0.019067 0.278308
v -0.061051 0.229135 0.273072
v -0.112170 -0.019067 0.257566
v -0.159280 0.229135 0.232384
v -0.200573 -0.019067 0.198496
v -0.234462 0.229135 0.157203
v -0.259643 -0.019067 0.110092
v -0.275149 0.229135 0.058974
v -0.280385 -0.019067 0.005813
v -0.275149 0.229135 -0.047348
v -0.259643 -0.019067 -0.098467
v -0.234461 0.229135 -0.145577
v -0.200573 -0.019067 -0.186870
v -0.159280 0.229135 -0.220758
v -0.112169 -0.019067 -0.245940
v -0.061051 0.229135 -0.261446
vn 0.706900 0.021100 -0.706900
vn 0.831300 -0.021100 -0.555400
vn 0.999800 0.021100 0.000000
vn 0.980600 -0.021100 -0.195000
vn 0.923700 0.021100 0.382600
vn 0.980600 -0.021100 0.195000
vn 0.706900 0.021100 0.706900
vn 0.831300 -0.021100 0.555400
vn 0.382600 0.021100 0.923700
vn 0.555400 -0.021100 0.831300
vn -0.000000 0.021100 0.999800
vn 0.195000 -0.021100 0.980600
vn -0.382600 0.021100 0.923700
vn -0.195000 -0.021100 0.980600
vn -0.706900 0.021100 0.706900
vn -0.555400 -0.021100 0.831300
vn -0.923700 0.021100 0.382600
vn -0.831300 -0.021100 0.555400
vn -0.999800 0.021100 -0.000000
vn -0.980600 -0.021100 0.195000
vn -0.923700 0.021100 -0.382600
vn -0.980600 -0.021100 -0.195000
vn -0.706900 0.021100 -0.707000
vn -0.831300 -0.021100 -0.555400
vn -0.382600 0.021100 -0.923700
vn -0.555400 -0.021100 -0.831300
vn -0.195000 -0.021100 -0.980600
vn 0.000000 1.000000 -0.000000
vn 0.195000 -0.021100 -0.980600
vn 0.923700 0.021100 -0.382600
vn 0.000000 -1.000000 0.000000
vn 0.382600 0.021100 -0.923700
vn 0.555400 -0.021100 -0.831300
vn 0.000000 0.021100 -0.999800
f 60//86 62//86 61//86
f 63//87 61//87 62//87
f 64//88 66//88 65//88
f 65//89 63//89 64//89
f 66//90 68//90 67//90
f 67//91 65//91 66//91
f 68//92 70//92 69//92
f 69//93 67//93 68//93
f 70//94 72//94 71//94
f 71//95 69//95 70//95
f 72//96 74//96 73//96
f 73//97 71//97 72//97
f 74//98 76//98 75//98
f 75//99 73//99 74//99
f 76//100 78//100 77//100
f 77//101 75//101 76//101
f 78//102 80//102 79//102
f 79//103 77//103 78//103
f 80//104 82//104 81//104
f 81//105 79//105 80//105
f 82//106 84//106 83//106
f 83//107 81//107 82//107
f 84//108 86//108 85//108
f 85//109 83//109 84//109
f 88//110 87//110 86//110
f 87//111 85//111 86//111
f 88//112 57//112 87//112
f 72//113 70//113 74//113
f 58//114 59//114 57//114
f 62//115 64//115 63//115
f 71//116 79//116 87//116
f 58//117 60//117 59//117
f 61//118 59//118 60//118
f 57//119 88//119 58//119
f 60//113 58//113 88//113
f 63//116 87//116 61//116
f 84//113 82//113 80//113
f 80//113 78//113 76//113
f 87//116 57//116 59//116
f 60//113 88//113 86//113
f 64//113 70//113 66//113
f 64//113 62//113 60//113
f 86//113 84//113 76//113
f 84//113 80//113 76//113
f 70//113 64//113 60//113
f 76//113 70//113 60//113
f 60//113 86//113 76//113
f 70//113 68//113 66//113
f 74//113 70//113 76//113
f 67//116 71//116 65//116
f 67//116 69//116 71//116
f 75//116 79//116 73//116
f 75//116 77//116 79//116
f 87//116 81//116 85//116
f 79//116 71//116 73//116
f 87//116 59//116 61//116
f 87//116 79//116 81//116
f 81//116 83//116 85//116
f 87//116 63//116 71//116
f 71//116 63//116 65//116
c 0.65 0.0 0.0